<mxfile host="app.diagrams.net" modified="2022-10-31T22:46:47.954Z" agent="5.0 (Macintosh; Intel Mac OS X 10_15_7) AppleWebKit/605.1.15 (KHTML, like Gecko) Version/15.6 Safari/605.1.15" etag="aVyOcIIomej3v6EE63_Z" version="20.5.1" type="github">
  <diagram id="RBAdvLxjI_K_Cmruik3L" name="Page-1">
    <mxGraphModel dx="881" dy="535" grid="1" gridSize="10" guides="1" tooltips="1" connect="1" arrows="1" fold="1" page="1" pageScale="1" pageWidth="850" pageHeight="1100" math="0" shadow="0">
      <root>
        <mxCell id="0" />
        <mxCell id="1" parent="0" />
        <mxCell id="gC6-7ZVIC2RvIrLo4W6S-2" value="NPC Interactions" style="rounded=1;whiteSpace=wrap;html=1;fontSize=20;" parent="1" vertex="1">
          <mxGeometry x="90" y="150" width="150" height="80" as="geometry" />
        </mxCell>
        <mxCell id="gC6-7ZVIC2RvIrLo4W6S-3" value="Lore Objects" style="rounded=1;whiteSpace=wrap;html=1;fontSize=20;" parent="1" vertex="1">
          <mxGeometry x="270" y="150" width="140" height="80" as="geometry" />
        </mxCell>
        <mxCell id="gC6-7ZVIC2RvIrLo4W6S-15" style="edgeStyle=orthogonalEdgeStyle;rounded=0;orthogonalLoop=1;jettySize=auto;html=1;exitX=0.25;exitY=1;exitDx=0;exitDy=0;entryX=0;entryY=0.75;entryDx=0;entryDy=0;fontSize=20;" parent="1" source="gC6-7ZVIC2RvIrLo4W6S-4" target="gC6-7ZVIC2RvIrLo4W6S-13" edge="1">
          <mxGeometry relative="1" as="geometry" />
        </mxCell>
        <mxCell id="gC6-7ZVIC2RvIrLo4W6S-17" style="edgeStyle=orthogonalEdgeStyle;rounded=0;orthogonalLoop=1;jettySize=auto;html=1;exitX=0.5;exitY=1;exitDx=0;exitDy=0;entryX=0;entryY=0.25;entryDx=0;entryDy=0;fontSize=20;" parent="1" source="gC6-7ZVIC2RvIrLo4W6S-4" target="gC6-7ZVIC2RvIrLo4W6S-10" edge="1">
          <mxGeometry relative="1" as="geometry" />
        </mxCell>
        <mxCell id="gC6-7ZVIC2RvIrLo4W6S-4" value="Main Quest" style="rounded=1;whiteSpace=wrap;html=1;fontSize=20;" parent="1" vertex="1">
          <mxGeometry x="440" y="150" width="140" height="80" as="geometry" />
        </mxCell>
        <mxCell id="gC6-7ZVIC2RvIrLo4W6S-16" style="edgeStyle=orthogonalEdgeStyle;rounded=0;orthogonalLoop=1;jettySize=auto;html=1;exitX=0.75;exitY=1;exitDx=0;exitDy=0;entryX=1;entryY=0.75;entryDx=0;entryDy=0;fontSize=20;" parent="1" source="gC6-7ZVIC2RvIrLo4W6S-5" target="gC6-7ZVIC2RvIrLo4W6S-13" edge="1">
          <mxGeometry relative="1" as="geometry" />
        </mxCell>
        <mxCell id="gC6-7ZVIC2RvIrLo4W6S-18" style="edgeStyle=orthogonalEdgeStyle;rounded=0;orthogonalLoop=1;jettySize=auto;html=1;exitX=0.5;exitY=1;exitDx=0;exitDy=0;entryX=1;entryY=0.25;entryDx=0;entryDy=0;fontSize=20;" parent="1" source="gC6-7ZVIC2RvIrLo4W6S-5" target="gC6-7ZVIC2RvIrLo4W6S-10" edge="1">
          <mxGeometry relative="1" as="geometry" />
        </mxCell>
        <mxCell id="gC6-7ZVIC2RvIrLo4W6S-5" value="Side Quests" style="rounded=1;whiteSpace=wrap;html=1;fontSize=20;" parent="1" vertex="1">
          <mxGeometry x="610" y="150" width="140" height="80" as="geometry" />
        </mxCell>
        <mxCell id="gC6-7ZVIC2RvIrLo4W6S-9" value="Static World&lt;br&gt;Entities" style="rounded=1;whiteSpace=wrap;html=1;fontSize=20;" parent="1" vertex="1">
          <mxGeometry x="280" y="310" width="120" height="60" as="geometry" />
        </mxCell>
        <mxCell id="gC6-7ZVIC2RvIrLo4W6S-25" style="edgeStyle=orthogonalEdgeStyle;rounded=0;orthogonalLoop=1;jettySize=auto;html=1;exitX=0.5;exitY=1;exitDx=0;exitDy=0;entryX=0.5;entryY=0;entryDx=0;entryDy=0;fontSize=20;" parent="1" source="gC6-7ZVIC2RvIrLo4W6S-10" target="gC6-7ZVIC2RvIrLo4W6S-24" edge="1">
          <mxGeometry relative="1" as="geometry" />
        </mxCell>
        <mxCell id="gC6-7ZVIC2RvIrLo4W6S-10" value="Quest Items" style="rounded=1;whiteSpace=wrap;html=1;fontSize=20;" parent="1" vertex="1">
          <mxGeometry x="540" y="350" width="120" height="60" as="geometry" />
        </mxCell>
        <mxCell id="gC6-7ZVIC2RvIrLo4W6S-13" value="Delivery" style="rounded=1;whiteSpace=wrap;html=1;fontSize=20;" parent="1" vertex="1">
          <mxGeometry x="540" y="270" width="120" height="60" as="geometry" />
        </mxCell>
        <mxCell id="gC6-7ZVIC2RvIrLo4W6S-27" style="edgeStyle=orthogonalEdgeStyle;rounded=0;orthogonalLoop=1;jettySize=auto;html=1;exitX=0.5;exitY=1;exitDx=0;exitDy=0;entryX=0.5;entryY=0;entryDx=0;entryDy=0;fontSize=20;" parent="1" source="gC6-7ZVIC2RvIrLo4W6S-24" target="gC6-7ZVIC2RvIrLo4W6S-26" edge="1">
          <mxGeometry relative="1" as="geometry" />
        </mxCell>
        <mxCell id="gC6-7ZVIC2RvIrLo4W6S-29" style="edgeStyle=orthogonalEdgeStyle;rounded=0;orthogonalLoop=1;jettySize=auto;html=1;exitX=1;exitY=0.5;exitDx=0;exitDy=0;entryX=0;entryY=0.5;entryDx=0;entryDy=0;fontSize=20;" parent="1" source="gC6-7ZVIC2RvIrLo4W6S-24" target="gC6-7ZVIC2RvIrLo4W6S-28" edge="1">
          <mxGeometry relative="1" as="geometry" />
        </mxCell>
        <mxCell id="gC6-7ZVIC2RvIrLo4W6S-24" value="Completion" style="rounded=1;whiteSpace=wrap;html=1;fontSize=20;" parent="1" vertex="1">
          <mxGeometry x="540" y="440" width="120" height="60" as="geometry" />
        </mxCell>
        <mxCell id="gC6-7ZVIC2RvIrLo4W6S-26" value="Rewards" style="rounded=1;whiteSpace=wrap;html=1;fontSize=20;" parent="1" vertex="1">
          <mxGeometry x="540" y="540" width="120" height="60" as="geometry" />
        </mxCell>
        <mxCell id="gC6-7ZVIC2RvIrLo4W6S-28" value="Removal" style="rounded=1;whiteSpace=wrap;html=1;fontSize=20;" parent="1" vertex="1">
          <mxGeometry x="700" y="440" width="120" height="60" as="geometry" />
        </mxCell>
        <mxCell id="gC6-7ZVIC2RvIrLo4W6S-38" style="fontSize=10;" parent="1" />
        <mxCell id="gC6-7ZVIC2RvIrLo4W6S-41" value="NPC Interactions" style="rounded=1;whiteSpace=wrap;html=1;fontSize=20;" parent="gC6-7ZVIC2RvIrLo4W6S-38" vertex="1">
          <mxGeometry x="90" y="150" width="150" height="80" as="geometry" />
        </mxCell>
        <mxCell id="gC6-7ZVIC2RvIrLo4W6S-43" value="Lore Objects" style="rounded=1;whiteSpace=wrap;html=1;fontSize=20;" parent="gC6-7ZVIC2RvIrLo4W6S-38" vertex="1">
          <mxGeometry x="270" y="150" width="140" height="80" as="geometry" />
        </mxCell>
        <mxCell id="gC6-7ZVIC2RvIrLo4W6S-44" style="edgeStyle=orthogonalEdgeStyle;rounded=0;orthogonalLoop=1;jettySize=auto;html=1;exitX=0.25;exitY=1;exitDx=0;exitDy=0;entryX=0;entryY=0.75;entryDx=0;entryDy=0;fontSize=20;" parent="gC6-7ZVIC2RvIrLo4W6S-38" source="gC6-7ZVIC2RvIrLo4W6S-46" target="gC6-7ZVIC2RvIrLo4W6S-60" edge="1">
          <mxGeometry relative="1" as="geometry" />
        </mxCell>
        <mxCell id="gC6-7ZVIC2RvIrLo4W6S-45" style="edgeStyle=orthogonalEdgeStyle;rounded=0;orthogonalLoop=1;jettySize=auto;html=1;exitX=0.5;exitY=1;exitDx=0;exitDy=0;entryX=0;entryY=0.25;entryDx=0;entryDy=0;fontSize=20;" parent="gC6-7ZVIC2RvIrLo4W6S-38" source="gC6-7ZVIC2RvIrLo4W6S-46" target="gC6-7ZVIC2RvIrLo4W6S-55" edge="1">
          <mxGeometry relative="1" as="geometry" />
        </mxCell>
        <mxCell id="gC6-7ZVIC2RvIrLo4W6S-46" value="Main Quest" style="rounded=1;whiteSpace=wrap;html=1;fontSize=20;" parent="gC6-7ZVIC2RvIrLo4W6S-38" vertex="1">
          <mxGeometry x="440" y="150" width="140" height="80" as="geometry" />
        </mxCell>
        <mxCell id="gC6-7ZVIC2RvIrLo4W6S-47" style="edgeStyle=orthogonalEdgeStyle;rounded=0;orthogonalLoop=1;jettySize=auto;html=1;exitX=0.75;exitY=1;exitDx=0;exitDy=0;entryX=1;entryY=0.75;entryDx=0;entryDy=0;fontSize=20;" parent="gC6-7ZVIC2RvIrLo4W6S-38" source="gC6-7ZVIC2RvIrLo4W6S-49" target="gC6-7ZVIC2RvIrLo4W6S-60" edge="1">
          <mxGeometry relative="1" as="geometry" />
        </mxCell>
        <mxCell id="gC6-7ZVIC2RvIrLo4W6S-48" style="edgeStyle=orthogonalEdgeStyle;rounded=0;orthogonalLoop=1;jettySize=auto;html=1;exitX=0.5;exitY=1;exitDx=0;exitDy=0;entryX=1;entryY=0.25;entryDx=0;entryDy=0;fontSize=20;" parent="gC6-7ZVIC2RvIrLo4W6S-38" source="gC6-7ZVIC2RvIrLo4W6S-49" target="gC6-7ZVIC2RvIrLo4W6S-55" edge="1">
          <mxGeometry relative="1" as="geometry" />
        </mxCell>
        <mxCell id="gC6-7ZVIC2RvIrLo4W6S-49" value="Side Quests" style="rounded=1;whiteSpace=wrap;html=1;fontSize=20;" parent="gC6-7ZVIC2RvIrLo4W6S-38" vertex="1">
          <mxGeometry x="610" y="150" width="140" height="80" as="geometry" />
        </mxCell>
        <mxCell id="gC6-7ZVIC2RvIrLo4W6S-51" value="Conversation" style="rounded=1;whiteSpace=wrap;html=1;fontSize=20;" parent="gC6-7ZVIC2RvIrLo4W6S-38" vertex="1">
          <mxGeometry x="105" y="240" width="120" height="60" as="geometry" />
        </mxCell>
        <mxCell id="gC6-7ZVIC2RvIrLo4W6S-53" value="Static World&lt;br&gt;Entities" style="rounded=1;whiteSpace=wrap;html=1;fontSize=20;" parent="gC6-7ZVIC2RvIrLo4W6S-38" vertex="1">
          <mxGeometry x="280" y="240" width="120" height="60" as="geometry" />
        </mxCell>
        <mxCell id="gC6-7ZVIC2RvIrLo4W6S-54" style="edgeStyle=orthogonalEdgeStyle;rounded=0;orthogonalLoop=1;jettySize=auto;html=1;exitX=0.5;exitY=1;exitDx=0;exitDy=0;entryX=0.5;entryY=0;entryDx=0;entryDy=0;fontSize=20;" parent="gC6-7ZVIC2RvIrLo4W6S-38" source="gC6-7ZVIC2RvIrLo4W6S-55" target="gC6-7ZVIC2RvIrLo4W6S-63" edge="1">
          <mxGeometry relative="1" as="geometry" />
        </mxCell>
        <mxCell id="gC6-7ZVIC2RvIrLo4W6S-55" value="Quest Items" style="rounded=1;whiteSpace=wrap;html=1;fontSize=20;" parent="gC6-7ZVIC2RvIrLo4W6S-38" vertex="1">
          <mxGeometry x="540" y="350" width="120" height="60" as="geometry" />
        </mxCell>
        <mxCell id="gC6-7ZVIC2RvIrLo4W6S-57" value="Lore Database" style="rounded=1;whiteSpace=wrap;html=1;fontSize=20;" parent="gC6-7ZVIC2RvIrLo4W6S-38" vertex="1">
          <mxGeometry x="280" y="380" width="120" height="60" as="geometry" />
        </mxCell>
        <mxCell id="gC6-7ZVIC2RvIrLo4W6S-59" value="Speech&lt;br&gt;Database" style="rounded=1;whiteSpace=wrap;html=1;fontSize=20;" parent="gC6-7ZVIC2RvIrLo4W6S-38" vertex="1">
          <mxGeometry x="105" y="310" width="120" height="60" as="geometry" />
        </mxCell>
        <mxCell id="gC6-7ZVIC2RvIrLo4W6S-60" value="Delivery" style="rounded=1;whiteSpace=wrap;html=1;fontSize=20;" parent="gC6-7ZVIC2RvIrLo4W6S-38" vertex="1">
          <mxGeometry x="540" y="270" width="120" height="60" as="geometry" />
        </mxCell>
        <mxCell id="gC6-7ZVIC2RvIrLo4W6S-61" style="edgeStyle=orthogonalEdgeStyle;rounded=0;orthogonalLoop=1;jettySize=auto;html=1;exitX=0.5;exitY=1;exitDx=0;exitDy=0;entryX=0.5;entryY=0;entryDx=0;entryDy=0;fontSize=20;" parent="gC6-7ZVIC2RvIrLo4W6S-38" source="gC6-7ZVIC2RvIrLo4W6S-63" target="gC6-7ZVIC2RvIrLo4W6S-64" edge="1">
          <mxGeometry relative="1" as="geometry" />
        </mxCell>
        <mxCell id="gC6-7ZVIC2RvIrLo4W6S-62" style="edgeStyle=orthogonalEdgeStyle;rounded=0;orthogonalLoop=1;jettySize=auto;html=1;exitX=1;exitY=0.5;exitDx=0;exitDy=0;entryX=0;entryY=0.5;entryDx=0;entryDy=0;fontSize=20;" parent="gC6-7ZVIC2RvIrLo4W6S-38" source="gC6-7ZVIC2RvIrLo4W6S-63" target="gC6-7ZVIC2RvIrLo4W6S-65" edge="1">
          <mxGeometry relative="1" as="geometry" />
        </mxCell>
        <mxCell id="gC6-7ZVIC2RvIrLo4W6S-63" value="Completion" style="rounded=1;whiteSpace=wrap;html=1;fontSize=20;" parent="gC6-7ZVIC2RvIrLo4W6S-38" vertex="1">
          <mxGeometry x="540" y="440" width="120" height="60" as="geometry" />
        </mxCell>
        <mxCell id="gC6-7ZVIC2RvIrLo4W6S-64" value="Rewards" style="rounded=1;whiteSpace=wrap;html=1;fontSize=20;" parent="gC6-7ZVIC2RvIrLo4W6S-38" vertex="1">
          <mxGeometry x="540" y="540" width="120" height="60" as="geometry" />
        </mxCell>
        <mxCell id="gC6-7ZVIC2RvIrLo4W6S-65" value="Removal" style="rounded=1;whiteSpace=wrap;html=1;fontSize=20;" parent="gC6-7ZVIC2RvIrLo4W6S-38" vertex="1">
          <mxGeometry x="700" y="440" width="120" height="60" as="geometry" />
        </mxCell>
        <mxCell id="lje5N1oaN9F28Hz4v_3L-5" value="&lt;b style=&quot;font-size: 16px;&quot;&gt;Story Delivery&lt;br&gt;System&lt;/b&gt;" style="shape=hexagon;perimeter=hexagonPerimeter2;whiteSpace=wrap;html=1;fixedSize=1;fontSize=10;" vertex="1" parent="1">
          <mxGeometry x="355" y="20" width="140" height="100" as="geometry" />
        </mxCell>
        <mxCell id="lje5N1oaN9F28Hz4v_3L-6" value="UI Systems" style="rounded=1;whiteSpace=wrap;html=1;fontSize=16;dashed=1;" vertex="1" parent="1">
          <mxGeometry x="180" y="480" width="120" height="60" as="geometry" />
        </mxCell>
        <mxCell id="lje5N1oaN9F28Hz4v_3L-7" style="edgeStyle=orthogonalEdgeStyle;rounded=0;orthogonalLoop=1;jettySize=auto;html=1;exitX=0.5;exitY=1;exitDx=0;exitDy=0;entryX=0.5;entryY=0;entryDx=0;entryDy=0;fontSize=16;" edge="1" parent="1" source="gC6-7ZVIC2RvIrLo4W6S-57" target="lje5N1oaN9F28Hz4v_3L-6">
          <mxGeometry relative="1" as="geometry" />
        </mxCell>
        <mxCell id="lje5N1oaN9F28Hz4v_3L-10" style="edgeStyle=orthogonalEdgeStyle;rounded=0;orthogonalLoop=1;jettySize=auto;html=1;exitX=0.5;exitY=1;exitDx=0;exitDy=0;entryX=0.5;entryY=0;entryDx=0;entryDy=0;fontSize=16;" edge="1" parent="1" source="gC6-7ZVIC2RvIrLo4W6S-59" target="lje5N1oaN9F28Hz4v_3L-6">
          <mxGeometry relative="1" as="geometry" />
        </mxCell>
      </root>
    </mxGraphModel>
  </diagram>
</mxfile>
